<mxfile>
  <diagram>
    <mxGraphModel dx="4000" dy="4000" grid="1" gridSize="10" guides="1" tooltips="1" connect="1" arrows="1" fold="1" pageScale="1" pageWidth="4000" pageHeight="4000" math="0" shadow="0">
      <root>
        <mxCell id="0"/>
        <mxCell id="1" parent="0"/>
        <object label="" type="arrow" id="1804028805590296628">
          <mxCell id="184711088631274366" value="" style="edgeStyle=loopEdgeStyle;orthogonalloop=0;rounded=0;jettySize=auto;html=1" parent="1" connectable="" edge="1" vertex="" source="" target="">
            <mxGeometry x="" y="" width="" height="" relative="1" as="geometry">
              <mxPoint x="-4500" y="-2910" as="sourcePoint"/>
              <mxPoint x="-4100" y="-2910" as="targetPoint"/>
            </mxGeometry>
          </mxCell>
        </object>
        <object label="HDMI  0001" type="text-box" id="8019065180471092465">
          <mxCell id="1168010746606085319" value="HDMI  0001" style="text;html=1;strokeColor=none;fillColor=none;align=left;verticalAlign=middle;whiteSpace=wrap;rounded=0;" parent="1" connectable="" edge="" vertex="1" source="" target="">
            <mxGeometry x="-4250" y="-2950" width="80" height="60" relative="" as="geometry"/>
          </mxCell>
        </object>
        <object label="" type="arrow" id="6288615895920631482">
          <mxCell id="6825234920632842866" value="" style="edgeStyle=loopEdgeStyle;orthogonalloop=0;rounded=0;jettySize=auto;html=1" parent="1" connectable="" edge="1" vertex="" source="" target="">
            <mxGeometry x="" y="" width="" height="" relative="1" as="geometry">
              <mxPoint x="-4500" y="-2790" as="sourcePoint"/>
              <mxPoint x="-4100" y="-2790" as="targetPoint"/>
            </mxGeometry>
          </mxCell>
        </object>
        <object label="HDMI  0002" type="text-box" id="739899015023156603">
          <mxCell id="3077140476236942001" value="HDMI  0002" style="text;html=1;strokeColor=none;fillColor=none;align=left;verticalAlign=middle;whiteSpace=wrap;rounded=0;" parent="1" connectable="" edge="" vertex="1" source="" target="">
            <mxGeometry x="-4250" y="-2830" width="80" height="60" relative="" as="geometry"/>
          </mxCell>
        </object>
        <object label="" type="arrow" id="1751420963106678509">
          <mxCell id="4914595522728012022" value="" style="edgeStyle=loopEdgeStyle;orthogonalloop=0;rounded=0;jettySize=auto;html=1" parent="1" connectable="" edge="1" vertex="" source="" target="">
            <mxGeometry x="" y="" width="" height="" relative="1" as="geometry">
              <mxPoint x="-4500" y="-2670" as="sourcePoint"/>
              <mxPoint x="-4100" y="-2670" as="targetPoint"/>
            </mxGeometry>
          </mxCell>
        </object>
        <object label="HDMI  0003" type="text-box" id="4027044746925193245">
          <mxCell id="1617438663801223620" value="HDMI  0003" style="text;html=1;strokeColor=none;fillColor=none;align=left;verticalAlign=middle;whiteSpace=wrap;rounded=0;" parent="1" connectable="" edge="" vertex="1" source="" target="">
            <mxGeometry x="-4250" y="-2710" width="80" height="60" relative="" as="geometry"/>
          </mxCell>
        </object>
        <object label="" type="arrow" id="4575997735351739876">
          <mxCell id="7146151671255955993" value="" style="edgeStyle=loopEdgeStyle;orthogonalloop=0;rounded=0;jettySize=auto;html=1" parent="1" connectable="" edge="1" vertex="" source="" target="">
            <mxGeometry x="" y="" width="" height="" relative="1" as="geometry">
              <mxPoint x="-4500" y="-2550" as="sourcePoint"/>
              <mxPoint x="-4100" y="-2550" as="targetPoint"/>
            </mxGeometry>
          </mxCell>
        </object>
        <object label="HDMI  0004" type="text-box" id="7371707963333304890">
          <mxCell id="9950628614443855541" value="HDMI  0004" style="text;html=1;strokeColor=none;fillColor=none;align=left;verticalAlign=middle;whiteSpace=wrap;rounded=0;" parent="1" connectable="" edge="" vertex="1" source="" target="">
            <mxGeometry x="-4250" y="-2590" width="80" height="60" relative="" as="geometry"/>
          </mxCell>
        </object>
        <object label="" type="arrow" id="195958531125061197">
          <mxCell id="8625023997686414674" value="" style="edgeStyle=loopEdgeStyle;orthogonalloop=0;rounded=0;jettySize=auto;html=1" parent="1" connectable="" edge="1" vertex="" source="" target="">
            <mxGeometry x="" y="" width="" height="" relative="1" as="geometry">
              <mxPoint x="-4500" y="-2430" as="sourcePoint"/>
              <mxPoint x="-4100" y="-2430" as="targetPoint"/>
            </mxGeometry>
          </mxCell>
        </object>
        <object label="HDMI  0005" type="text-box" id="4285556129992361434">
          <mxCell id="6541147504881243522" value="HDMI  0005" style="text;html=1;strokeColor=none;fillColor=none;align=left;verticalAlign=middle;whiteSpace=wrap;rounded=0;" parent="1" connectable="" edge="" vertex="1" source="" target="">
            <mxGeometry x="-4250" y="-2470" width="80" height="60" relative="" as="geometry"/>
          </mxCell>
        </object>
        <object label="" type="arrow" id="9613210410938256762">
          <mxCell id="3132191763609765643" value="" style="edgeStyle=loopEdgeStyle;orthogonalloop=0;rounded=0;jettySize=auto;html=1" parent="1" connectable="" edge="1" vertex="" source="" target="">
            <mxGeometry x="" y="" width="" height="" relative="1" as="geometry">
              <mxPoint x="-4500" y="-2310" as="sourcePoint"/>
              <mxPoint x="-4100" y="-2310" as="targetPoint"/>
            </mxGeometry>
          </mxCell>
        </object>
        <object label="HDMI  0006" type="text-box" id="268447543734372724">
          <mxCell id="5871362107300871098" value="HDMI  0006" style="text;html=1;strokeColor=none;fillColor=none;align=left;verticalAlign=middle;whiteSpace=wrap;rounded=0;" parent="1" connectable="" edge="" vertex="1" source="" target="">
            <mxGeometry x="-4250" y="-2350" width="80" height="60" relative="" as="geometry"/>
          </mxCell>
        </object>
        <object label="" type="arrow" id="8548938320238103674">
          <mxCell id="2655283938261218017" value="" style="edgeStyle=loopEdgeStyle;orthogonalloop=0;rounded=0;jettySize=auto;html=1" parent="1" connectable="" edge="1" vertex="" source="" target="">
            <mxGeometry x="" y="" width="" height="" relative="1" as="geometry">
              <mxPoint x="-4500" y="-2190" as="sourcePoint"/>
              <mxPoint x="-4100" y="-2190" as="targetPoint"/>
            </mxGeometry>
          </mxCell>
        </object>
        <object label="DTP  0007" type="text-box" id="2070943174055891297">
          <mxCell id="6398574229300049772" value="DTP  0007" style="text;html=1;strokeColor=none;fillColor=none;align=left;verticalAlign=middle;whiteSpace=wrap;rounded=0;" parent="1" connectable="" edge="" vertex="1" source="" target="">
            <mxGeometry x="-4250" y="-2230" width="80" height="60" relative="" as="geometry"/>
          </mxCell>
        </object>
        <object label="" type="arrow" id="7837893369161122376">
          <mxCell id="2164090828991841401" value="" style="edgeStyle=loopEdgeStyle;orthogonalloop=0;rounded=0;jettySize=auto;html=1" parent="1" connectable="" edge="1" vertex="" source="" target="">
            <mxGeometry x="" y="" width="" height="" relative="1" as="geometry">
              <mxPoint x="-4500" y="-2070" as="sourcePoint"/>
              <mxPoint x="-4100" y="-2070" as="targetPoint"/>
            </mxGeometry>
          </mxCell>
        </object>
        <object label="DTP  0008" type="text-box" id="5545758570994917019">
          <mxCell id="8227781315217404030" value="DTP  0008" style="text;html=1;strokeColor=none;fillColor=none;align=left;verticalAlign=middle;whiteSpace=wrap;rounded=0;" parent="1" connectable="" edge="" vertex="1" source="" target="">
            <mxGeometry x="-4250" y="-2110" width="80" height="60" relative="" as="geometry"/>
          </mxCell>
        </object>
        <object label="" type="arrow" id="6842722838851134368">
          <mxCell id="4077217555442631801" value="" style="edgeStyle=loopEdgeStyle;orthogonalloop=0;rounded=0;jettySize=auto;html=1" parent="1" connectable="" edge="1" vertex="" source="" target="">
            <mxGeometry x="" y="" width="" height="" relative="1" as="geometry">
              <mxPoint x="-4900" y="-2550" as="sourcePoint"/>
              <mxPoint x="-4500" y="-2550" as="targetPoint"/>
            </mxGeometry>
          </mxCell>
        </object>
        <object label="HDMI  0104" type="text-box" id="4391309191221109766">
          <mxCell id="8120087689801261255" value="HDMI  0104" style="text;html=1;strokeColor=none;fillColor=none;align=left;verticalAlign=middle;whiteSpace=wrap;rounded=0;" parent="1" connectable="" edge="" vertex="1" source="" target="">
            <mxGeometry x="-4650" y="-2590" width="80" height="60" relative="" as="geometry"/>
          </mxCell>
        </object>
        <object label="" type="arrow" id="9138668555592904582">
          <mxCell id="8256986860302748670" value="" style="edgeStyle=loopEdgeStyle;orthogonalloop=0;rounded=0;jettySize=auto;html=1" parent="1" connectable="" edge="1" vertex="" source="" target="">
            <mxGeometry x="" y="" width="" height="" relative="1" as="geometry">
              <mxPoint x="-4900" y="-2190" as="sourcePoint"/>
              <mxPoint x="-4500" y="-2190" as="targetPoint"/>
            </mxGeometry>
          </mxCell>
        </object>
        <object label="HDMI  0107" type="text-box" id="2147036930981103542">
          <mxCell id="4802800747605044471" value="HDMI  0107" style="text;html=1;strokeColor=none;fillColor=none;align=left;verticalAlign=middle;whiteSpace=wrap;rounded=0;" parent="1" connectable="" edge="" vertex="1" source="" target="">
            <mxGeometry x="-4650" y="-2230" width="80" height="60" relative="" as="geometry"/>
          </mxCell>
        </object>
        <object label="" type="arrow" id="6458869126347840328">
          <mxCell id="2656925555857380177" value="" style="edgeStyle=loopEdgeStyle;orthogonalloop=0;rounded=0;jettySize=auto;html=1" parent="1" connectable="" edge="1" vertex="" source="" target="">
            <mxGeometry x="" y="" width="" height="" relative="1" as="geometry">
              <mxPoint x="-4900" y="-2070" as="sourcePoint"/>
              <mxPoint x="-4500" y="-2070" as="targetPoint"/>
            </mxGeometry>
          </mxCell>
        </object>
        <object label="HDMI  0108" type="text-box" id="7259875760028459452">
          <mxCell id="7898110178134154819" value="HDMI  0108" style="text;html=1;strokeColor=none;fillColor=none;align=left;verticalAlign=middle;whiteSpace=wrap;rounded=0;" parent="1" connectable="" edge="" vertex="1" source="" target="">
            <mxGeometry x="-4650" y="-2110" width="80" height="60" relative="" as="geometry"/>
          </mxCell>
        </object>
        <object label="" type="arrow" id="6563655573027387641">
          <mxCell id="4689142867315390945" value="" style="edgeStyle=loopEdgeStyle;orthogonalloop=0;rounded=0;jettySize=auto;html=1" parent="1" connectable="" edge="1" vertex="" source="" target="">
            <mxGeometry x="" y="" width="" height="" relative="1" as="geometry">
              <mxPoint x="-5300" y="-2550" as="sourcePoint"/>
              <mxPoint x="-4900" y="-2550" as="targetPoint"/>
            </mxGeometry>
          </mxCell>
        </object>
        <object label="HDMI  0204" type="text-box" id="8373095733727996816">
          <mxCell id="2508632179792139105" value="HDMI  0204" style="text;html=1;strokeColor=none;fillColor=none;align=left;verticalAlign=middle;whiteSpace=wrap;rounded=0;" parent="1" connectable="" edge="" vertex="1" source="" target="">
            <mxGeometry x="-5050" y="-2590" width="80" height="60" relative="" as="geometry"/>
          </mxCell>
        </object>
        <object label="" type="arrow" id="5364225938677141379">
          <mxCell id="3655412172112186016" value="" style="edgeStyle=loopEdgeStyle;orthogonalloop=0;rounded=0;jettySize=auto;html=1" parent="1" connectable="" edge="1" vertex="" source="" target="">
            <mxGeometry x="" y="" width="" height="" relative="1" as="geometry">
              <mxPoint x="-4100" y="-2910" as="sourcePoint"/>
              <mxPoint x="-3660" y="-2910" as="targetPoint"/>
            </mxGeometry>
          </mxCell>
        </object>
        <object label="HDMI  1001" type="text-box" id="1938361033627490956">
          <mxCell id="6102000657570782074" value="HDMI  1001" style="text;html=1;strokeColor=none;fillColor=none;align=left;verticalAlign=middle;whiteSpace=wrap;rounded=0;" parent="1" connectable="" edge="" vertex="1" source="" target="">
            <mxGeometry x="-3810" y="-2950" width="80" height="60" relative="" as="geometry"/>
          </mxCell>
        </object>
        <object label="" type="arrow" id="1739974066148474000">
          <mxCell id="5263179294469979954" value="" style="edgeStyle=loopEdgeStyle;orthogonalloop=0;rounded=0;jettySize=auto;html=1" parent="1" connectable="" edge="1" vertex="" source="" target="">
            <mxGeometry x="" y="" width="" height="" relative="1" as="geometry">
              <mxPoint x="-4100" y="-2790" as="sourcePoint"/>
              <mxPoint x="-3660" y="-2790" as="targetPoint"/>
            </mxGeometry>
          </mxCell>
        </object>
        <object label="HDMI  1002" type="text-box" id="1836881056649570491">
          <mxCell id="8095608157499502541" value="HDMI  1002" style="text;html=1;strokeColor=none;fillColor=none;align=left;verticalAlign=middle;whiteSpace=wrap;rounded=0;" parent="1" connectable="" edge="" vertex="1" source="" target="">
            <mxGeometry x="-3810" y="-2830" width="80" height="60" relative="" as="geometry"/>
          </mxCell>
        </object>
        <object label="" type="arrow" id="1793714116727176840">
          <mxCell id="9030878557030202478" value="" style="edgeStyle=loopEdgeStyle;orthogonalloop=0;rounded=0;jettySize=auto;html=1" parent="1" connectable="" edge="1" vertex="" source="" target="">
            <mxGeometry x="" y="" width="" height="" relative="1" as="geometry">
              <mxPoint x="-4100" y="-2670" as="sourcePoint"/>
              <mxPoint x="-3660" y="-2670" as="targetPoint"/>
            </mxGeometry>
          </mxCell>
        </object>
        <object label="HDMI  1003" type="text-box" id="1638889782122695482">
          <mxCell id="9053366622297827609" value="HDMI  1003" style="text;html=1;strokeColor=none;fillColor=none;align=left;verticalAlign=middle;whiteSpace=wrap;rounded=0;" parent="1" connectable="" edge="" vertex="1" source="" target="">
            <mxGeometry x="-3810" y="-2710" width="80" height="60" relative="" as="geometry"/>
          </mxCell>
        </object>
        <object label="" type="arrow" id="6185369304406037101">
          <mxCell id="9483928355158741858" value="" style="edgeStyle=loopEdgeStyle;orthogonalloop=0;rounded=0;jettySize=auto;html=1" parent="1" connectable="" edge="1" vertex="" source="" target="">
            <mxGeometry x="" y="" width="" height="" relative="1" as="geometry">
              <mxPoint x="-4100" y="-2550" as="sourcePoint"/>
              <mxPoint x="-3660" y="-2550" as="targetPoint"/>
            </mxGeometry>
          </mxCell>
        </object>
        <object label="HDMI  1004" type="text-box" id="7963303094544327482">
          <mxCell id="2334391395679464841" value="HDMI  1004" style="text;html=1;strokeColor=none;fillColor=none;align=left;verticalAlign=middle;whiteSpace=wrap;rounded=0;" parent="1" connectable="" edge="" vertex="1" source="" target="">
            <mxGeometry x="-3810" y="-2590" width="80" height="60" relative="" as="geometry"/>
          </mxCell>
        </object>
        <object label="" type="arrow" id="2458746208262757695">
          <mxCell id="8687071626995144040" value="" style="edgeStyle=loopEdgeStyle;orthogonalloop=0;rounded=0;jettySize=auto;html=1" parent="1" connectable="" edge="1" vertex="" source="" target="">
            <mxGeometry x="" y="" width="" height="" relative="1" as="geometry">
              <mxPoint x="-3660" y="-2790" as="sourcePoint"/>
              <mxPoint x="-3260" y="-2790" as="targetPoint"/>
            </mxGeometry>
          </mxCell>
        </object>
        <object label="HDMI  1102" type="text-box" id="942665474400901527">
          <mxCell id="9658373463239958316" value="HDMI  1102" style="text;html=1;strokeColor=none;fillColor=none;align=left;verticalAlign=middle;whiteSpace=wrap;rounded=0;" parent="1" connectable="" edge="" vertex="1" source="" target="">
            <mxGeometry x="-3410" y="-2830" width="80" height="60" relative="" as="geometry"/>
          </mxCell>
        </object>
        <object label="" type="DTP" id="4815312777902837373">
          <mxCell id="9136598825665369116" value="" style="rounded=0;whiteSpace=wrap;html=1;" parent="1" connectable="" edge="" vertex="1" source="" target="">
            <mxGeometry x="-4500" y="-2975" width="160" height="90" relative="" as="geometry"/>
          </mxCell>
        </object>
        <object label="" type="DTP" id="9595666762433076914">
          <mxCell id="1088589759404791461" value="" style="rounded=0;whiteSpace=wrap;html=1;" parent="1" connectable="" edge="" vertex="1" source="" target="">
            <mxGeometry x="-4500" y="-2855" width="160" height="90" relative="" as="geometry"/>
          </mxCell>
        </object>
        <object label="" type="DTP" id="7301279001768195111">
          <mxCell id="1686417305314988414" value="" style="rounded=0;whiteSpace=wrap;html=1;" parent="1" connectable="" edge="" vertex="1" source="" target="">
            <mxGeometry x="-4500" y="-2735" width="160" height="90" relative="" as="geometry"/>
          </mxCell>
        </object>
        <object label="" type="DTP" id="9278798576051821942">
          <mxCell id="6154541831097772630" value="" style="rounded=0;whiteSpace=wrap;html=1;" parent="1" connectable="" edge="" vertex="1" source="" target="">
            <mxGeometry x="-4500" y="-2615" width="160" height="90" relative="" as="geometry"/>
          </mxCell>
        </object>
        <object label="" type="DTP" id="2700828838975159841">
          <mxCell id="6819080461376310601" value="" style="rounded=0;whiteSpace=wrap;html=1;" parent="1" connectable="" edge="" vertex="1" source="" target="">
            <mxGeometry x="-4500" y="-2495" width="160" height="90" relative="" as="geometry"/>
          </mxCell>
        </object>
        <object label="" type="DTP" id="638435257053565467">
          <mxCell id="1249516369887736340" value="" style="rounded=0;whiteSpace=wrap;html=1;" parent="1" connectable="" edge="" vertex="1" source="" target="">
            <mxGeometry x="-4500" y="-2375" width="160" height="90" relative="" as="geometry"/>
          </mxCell>
        </object>
        <object label="" type="DTP" id="1285981566282855054">
          <mxCell id="191061560382413973" value="" style="rounded=0;whiteSpace=wrap;html=1;" parent="1" connectable="" edge="" vertex="1" source="" target="">
            <mxGeometry x="-4500" y="-2255" width="160" height="90" relative="" as="geometry"/>
          </mxCell>
        </object>
        <object label="" type="DTP" id="5959763673940277713">
          <mxCell id="7483368729067692156" value="" style="rounded=0;whiteSpace=wrap;html=1;" parent="1" connectable="" edge="" vertex="1" source="" target="">
            <mxGeometry x="-4500" y="-2135" width="160" height="90" relative="" as="geometry"/>
          </mxCell>
        </object>
        <object label="" type="DTP" id="4497691142320801152">
          <mxCell id="8427355035547478685" value="" style="rounded=0;whiteSpace=wrap;html=1;" parent="1" connectable="" edge="" vertex="1" source="" target="">
            <mxGeometry x="-4900" y="-2615" width="160" height="90" relative="" as="geometry"/>
          </mxCell>
        </object>
        <object label="" type="DTP" id="9224576909327171466">
          <mxCell id="4949612166748329994" value="" style="rounded=0;whiteSpace=wrap;html=1;" parent="1" connectable="" edge="" vertex="1" source="" target="">
            <mxGeometry x="-4900" y="-2255" width="160" height="90" relative="" as="geometry"/>
          </mxCell>
        </object>
        <object label="" type="DTP" id="1220626338079428019">
          <mxCell id="4103892612897500673" value="" style="rounded=0;whiteSpace=wrap;html=1;" parent="1" connectable="" edge="" vertex="1" source="" target="">
            <mxGeometry x="-4900" y="-2135" width="160" height="90" relative="" as="geometry"/>
          </mxCell>
        </object>
        <object label="" type="DTP" id="6243433700322509467">
          <mxCell id="7553682580451021793" value="" style="rounded=0;whiteSpace=wrap;html=1;" parent="1" connectable="" edge="" vertex="1" source="" target="">
            <mxGeometry x="-5300" y="-2615" width="160" height="90" relative="" as="geometry"/>
          </mxCell>
        </object>
        <object label="" type="DTP" id="2444490119444869610">
          <mxCell id="1122740772034595037" value="" style="rounded=0;whiteSpace=wrap;html=1;" parent="1" connectable="" edge="" vertex="1" source="" target="">
            <mxGeometry x="-3660" y="-2975" width="160" height="90" relative="" as="geometry"/>
          </mxCell>
        </object>
        <object label="" type="DTP" id="3891315555870354978">
          <mxCell id="6125399548462113187" value="" style="rounded=0;whiteSpace=wrap;html=1;" parent="1" connectable="" edge="" vertex="1" source="" target="">
            <mxGeometry x="-3660" y="-2855" width="160" height="90" relative="" as="geometry"/>
          </mxCell>
        </object>
        <object label="" type="DTP" id="2321529594642305543">
          <mxCell id="394549822761152495" value="" style="rounded=0;whiteSpace=wrap;html=1;" parent="1" connectable="" edge="" vertex="1" source="" target="">
            <mxGeometry x="-3660" y="-2735" width="160" height="90" relative="" as="geometry"/>
          </mxCell>
        </object>
        <object label="" type="DTP" id="5706710530500842022">
          <mxCell id="2896425853107673987" value="" style="rounded=0;whiteSpace=wrap;html=1;" parent="1" connectable="" edge="" vertex="1" source="" target="">
            <mxGeometry x="-3660" y="-2615" width="160" height="90" relative="" as="geometry"/>
          </mxCell>
        </object>
        <object label="" type="DTP" id="3444669552149561880">
          <mxCell id="8077184598964296582" value="" style="rounded=0;whiteSpace=wrap;html=1;" parent="1" connectable="" edge="" vertex="1" source="" target="">
            <mxGeometry x="-3260" y="-2855" width="160" height="90" relative="" as="geometry"/>
          </mxCell>
        </object>
        <object label="HDMI" type="textbox" id="4972731321408607433">
          <mxCell id="7169198340910461858" value="HDMI" style="text;html=1;strokeColor=none;fillColor=none;align=left;verticalAlign=middle;whiteSpace=wrap;rounded=0;" parent="1" connectable="" edge="" vertex="1" source="" target="">
            <mxGeometry x="-4495" y="-2930" width="60" height="40" relative="" as="geometry"/>
          </mxCell>
        </object>
        <object label="HDMI" type="textbox" id="8774231659015612891">
          <mxCell id="3989091826471012603" value="HDMI" style="text;html=1;strokeColor=none;fillColor=none;align=left;verticalAlign=middle;whiteSpace=wrap;rounded=0;" parent="1" connectable="" edge="" vertex="1" source="" target="">
            <mxGeometry x="-4380" y="-2930" width="60" height="40" relative="" as="geometry"/>
          </mxCell>
        </object>
        <object label="HDMI" type="textbox" id="6394856740912016853">
          <mxCell id="8886927168903637148" value="HDMI" style="text;html=1;strokeColor=none;fillColor=none;align=left;verticalAlign=middle;whiteSpace=wrap;rounded=0;" parent="1" connectable="" edge="" vertex="1" source="" target="">
            <mxGeometry x="-4495" y="-2810" width="60" height="40" relative="" as="geometry"/>
          </mxCell>
        </object>
        <object label="HDMI" type="textbox" id="2982859477729915017">
          <mxCell id="5742513741025937750" value="HDMI" style="text;html=1;strokeColor=none;fillColor=none;align=left;verticalAlign=middle;whiteSpace=wrap;rounded=0;" parent="1" connectable="" edge="" vertex="1" source="" target="">
            <mxGeometry x="-4380" y="-2810" width="60" height="40" relative="" as="geometry"/>
          </mxCell>
        </object>
        <object label="CATV" type="textbox" id="5297320599344557821">
          <mxCell id="2208064044963906715" value="CATV" style="text;html=1;strokeColor=none;fillColor=none;align=left;verticalAlign=middle;whiteSpace=wrap;rounded=0;" parent="1" connectable="" edge="" vertex="1" source="" target="">
            <mxGeometry x="-4495" y="-2690" width="60" height="40" relative="" as="geometry"/>
          </mxCell>
        </object>
        <object label="HDMI" type="textbox" id="2745856743312429496">
          <mxCell id="7906960343673067446" value="HDMI" style="text;html=1;strokeColor=none;fillColor=none;align=left;verticalAlign=middle;whiteSpace=wrap;rounded=0;" parent="1" connectable="" edge="" vertex="1" source="" target="">
            <mxGeometry x="-4380" y="-2690" width="60" height="40" relative="" as="geometry"/>
          </mxCell>
        </object>
        <object label="HDMI" type="textbox" id="7234012944784358841">
          <mxCell id="4848432404073113396" value="HDMI" style="text;html=1;strokeColor=none;fillColor=none;align=left;verticalAlign=middle;whiteSpace=wrap;rounded=0;" parent="1" connectable="" edge="" vertex="1" source="" target="">
            <mxGeometry x="-4495" y="-2570" width="60" height="40" relative="" as="geometry"/>
          </mxCell>
        </object>
        <object label="HDMI" type="textbox" id="1575636701166077999">
          <mxCell id="3007463300818587798" value="HDMI" style="text;html=1;strokeColor=none;fillColor=none;align=left;verticalAlign=middle;whiteSpace=wrap;rounded=0;" parent="1" connectable="" edge="" vertex="1" source="" target="">
            <mxGeometry x="-4380" y="-2570" width="60" height="40" relative="" as="geometry"/>
          </mxCell>
        </object>
        <object label="HDMI" type="textbox" id="7371907832924334635">
          <mxCell id="1553539644252608428" value="HDMI" style="text;html=1;strokeColor=none;fillColor=none;align=left;verticalAlign=middle;whiteSpace=wrap;rounded=0;" parent="1" connectable="" edge="" vertex="1" source="" target="">
            <mxGeometry x="-4495" y="-2450" width="60" height="40" relative="" as="geometry"/>
          </mxCell>
        </object>
        <object label="HDMI" type="textbox" id="7347193869628563880">
          <mxCell id="4562296909531831435" value="HDMI" style="text;html=1;strokeColor=none;fillColor=none;align=left;verticalAlign=middle;whiteSpace=wrap;rounded=0;" parent="1" connectable="" edge="" vertex="1" source="" target="">
            <mxGeometry x="-4380" y="-2450" width="60" height="40" relative="" as="geometry"/>
          </mxCell>
        </object>
        <object label="HDMI" type="textbox" id="4411774237680299016">
          <mxCell id="4551686659262639848" value="HDMI" style="text;html=1;strokeColor=none;fillColor=none;align=left;verticalAlign=middle;whiteSpace=wrap;rounded=0;" parent="1" connectable="" edge="" vertex="1" source="" target="">
            <mxGeometry x="-4495" y="-2330" width="60" height="40" relative="" as="geometry"/>
          </mxCell>
        </object>
        <object label="HDMI" type="textbox" id="4719256889879523642">
          <mxCell id="2994148859391330117" value="HDMI" style="text;html=1;strokeColor=none;fillColor=none;align=left;verticalAlign=middle;whiteSpace=wrap;rounded=0;" parent="1" connectable="" edge="" vertex="1" source="" target="">
            <mxGeometry x="-4380" y="-2330" width="60" height="40" relative="" as="geometry"/>
          </mxCell>
        </object>
        <object label="HDMI" type="textbox" id="3533064889645958843">
          <mxCell id="5114818772989680043" value="HDMI" style="text;html=1;strokeColor=none;fillColor=none;align=left;verticalAlign=middle;whiteSpace=wrap;rounded=0;" parent="1" connectable="" edge="" vertex="1" source="" target="">
            <mxGeometry x="-4495" y="-2210" width="60" height="40" relative="" as="geometry"/>
          </mxCell>
        </object>
        <object label="DTP" type="textbox" id="3897530752921479765">
          <mxCell id="9917335399746363438" value="DTP" style="text;html=1;strokeColor=none;fillColor=none;align=left;verticalAlign=middle;whiteSpace=wrap;rounded=0;" parent="1" connectable="" edge="" vertex="1" source="" target="">
            <mxGeometry x="-4380" y="-2210" width="60" height="40" relative="" as="geometry"/>
          </mxCell>
        </object>
        <object label="HDMI" type="textbox" id="8254460235109543579">
          <mxCell id="1380947753968503949" value="HDMI" style="text;html=1;strokeColor=none;fillColor=none;align=left;verticalAlign=middle;whiteSpace=wrap;rounded=0;" parent="1" connectable="" edge="" vertex="1" source="" target="">
            <mxGeometry x="-4495" y="-2090" width="60" height="40" relative="" as="geometry"/>
          </mxCell>
        </object>
        <object label="DTP" type="textbox" id="373560165305608193">
          <mxCell id="7312152406050401165" value="DTP" style="text;html=1;strokeColor=none;fillColor=none;align=left;verticalAlign=middle;whiteSpace=wrap;rounded=0;" parent="1" connectable="" edge="" vertex="1" source="" target="">
            <mxGeometry x="-4380" y="-2090" width="60" height="40" relative="" as="geometry"/>
          </mxCell>
        </object>
        <object label="" type="textbox" id="2895298756271365320">
          <mxCell id="8219790658613766061" value="" style="text;html=1;strokeColor=none;fillColor=none;align=left;verticalAlign=middle;whiteSpace=wrap;rounded=0;" parent="1" connectable="" edge="" vertex="1" source="" target="">
            <mxGeometry x="-4895" y="-2930" width="60" height="40" relative="" as="geometry"/>
          </mxCell>
        </object>
        <object label="" type="textbox" id="2598734869974176324">
          <mxCell id="9513277592588727101" value="" style="text;html=1;strokeColor=none;fillColor=none;align=left;verticalAlign=middle;whiteSpace=wrap;rounded=0;" parent="1" connectable="" edge="" vertex="1" source="" target="">
            <mxGeometry x="-4780" y="-2930" width="60" height="40" relative="" as="geometry"/>
          </mxCell>
        </object>
        <object label="" type="textbox" id="8924421285167887221">
          <mxCell id="3084757530994291281" value="" style="text;html=1;strokeColor=none;fillColor=none;align=left;verticalAlign=middle;whiteSpace=wrap;rounded=0;" parent="1" connectable="" edge="" vertex="1" source="" target="">
            <mxGeometry x="-4895" y="-2810" width="60" height="40" relative="" as="geometry"/>
          </mxCell>
        </object>
        <object label="" type="textbox" id="507969018594144570">
          <mxCell id="6961340877142362074" value="" style="text;html=1;strokeColor=none;fillColor=none;align=left;verticalAlign=middle;whiteSpace=wrap;rounded=0;" parent="1" connectable="" edge="" vertex="1" source="" target="">
            <mxGeometry x="-4780" y="-2810" width="60" height="40" relative="" as="geometry"/>
          </mxCell>
        </object>
        <object label="" type="textbox" id="8459900001478368041">
          <mxCell id="2075141256125482388" value="" style="text;html=1;strokeColor=none;fillColor=none;align=left;verticalAlign=middle;whiteSpace=wrap;rounded=0;" parent="1" connectable="" edge="" vertex="1" source="" target="">
            <mxGeometry x="-4895" y="-2690" width="60" height="40" relative="" as="geometry"/>
          </mxCell>
        </object>
        <object label="" type="textbox" id="2875109035475507364">
          <mxCell id="2800090974551615463" value="" style="text;html=1;strokeColor=none;fillColor=none;align=left;verticalAlign=middle;whiteSpace=wrap;rounded=0;" parent="1" connectable="" edge="" vertex="1" source="" target="">
            <mxGeometry x="-4780" y="-2690" width="60" height="40" relative="" as="geometry"/>
          </mxCell>
        </object>
        <object label="HDMI" type="textbox" id="124855926185531910">
          <mxCell id="9887878488254859945" value="HDMI" style="text;html=1;strokeColor=none;fillColor=none;align=left;verticalAlign=middle;whiteSpace=wrap;rounded=0;" parent="1" connectable="" edge="" vertex="1" source="" target="">
            <mxGeometry x="-4895" y="-2570" width="60" height="40" relative="" as="geometry"/>
          </mxCell>
        </object>
        <object label="HDMI" type="textbox" id="6001080722002372841">
          <mxCell id="2559228559476624797" value="HDMI" style="text;html=1;strokeColor=none;fillColor=none;align=left;verticalAlign=middle;whiteSpace=wrap;rounded=0;" parent="1" connectable="" edge="" vertex="1" source="" target="">
            <mxGeometry x="-4780" y="-2570" width="60" height="40" relative="" as="geometry"/>
          </mxCell>
        </object>
        <object label="" type="textbox" id="6099024044243118335">
          <mxCell id="3571730390406802026" value="" style="text;html=1;strokeColor=none;fillColor=none;align=left;verticalAlign=middle;whiteSpace=wrap;rounded=0;" parent="1" connectable="" edge="" vertex="1" source="" target="">
            <mxGeometry x="-4895" y="-2450" width="60" height="40" relative="" as="geometry"/>
          </mxCell>
        </object>
        <object label="" type="textbox" id="5975378336551919178">
          <mxCell id="5631262393779726356" value="" style="text;html=1;strokeColor=none;fillColor=none;align=left;verticalAlign=middle;whiteSpace=wrap;rounded=0;" parent="1" connectable="" edge="" vertex="1" source="" target="">
            <mxGeometry x="-4780" y="-2450" width="60" height="40" relative="" as="geometry"/>
          </mxCell>
        </object>
        <object label="" type="textbox" id="1684117942604239713">
          <mxCell id="3329303233466020884" value="" style="text;html=1;strokeColor=none;fillColor=none;align=left;verticalAlign=middle;whiteSpace=wrap;rounded=0;" parent="1" connectable="" edge="" vertex="1" source="" target="">
            <mxGeometry x="-4895" y="-2330" width="60" height="40" relative="" as="geometry"/>
          </mxCell>
        </object>
        <object label="" type="textbox" id="6901302241755582423">
          <mxCell id="996968993500440320" value="" style="text;html=1;strokeColor=none;fillColor=none;align=left;verticalAlign=middle;whiteSpace=wrap;rounded=0;" parent="1" connectable="" edge="" vertex="1" source="" target="">
            <mxGeometry x="-4780" y="-2330" width="60" height="40" relative="" as="geometry"/>
          </mxCell>
        </object>
        <object label="HDMI" type="textbox" id="6708959360380168732">
          <mxCell id="3751595298174254707" value="HDMI" style="text;html=1;strokeColor=none;fillColor=none;align=left;verticalAlign=middle;whiteSpace=wrap;rounded=0;" parent="1" connectable="" edge="" vertex="1" source="" target="">
            <mxGeometry x="-4895" y="-2210" width="60" height="40" relative="" as="geometry"/>
          </mxCell>
        </object>
        <object label="HDMI" type="textbox" id="8345607783087127703">
          <mxCell id="6757673069393222380" value="HDMI" style="text;html=1;strokeColor=none;fillColor=none;align=left;verticalAlign=middle;whiteSpace=wrap;rounded=0;" parent="1" connectable="" edge="" vertex="1" source="" target="">
            <mxGeometry x="-4780" y="-2210" width="60" height="40" relative="" as="geometry"/>
          </mxCell>
        </object>
        <object label="HDMI" type="textbox" id="6892291757059185602">
          <mxCell id="8464204861862458613" value="HDMI" style="text;html=1;strokeColor=none;fillColor=none;align=left;verticalAlign=middle;whiteSpace=wrap;rounded=0;" parent="1" connectable="" edge="" vertex="1" source="" target="">
            <mxGeometry x="-4895" y="-2090" width="60" height="40" relative="" as="geometry"/>
          </mxCell>
        </object>
        <object label="HDMI" type="textbox" id="4020511882693069389">
          <mxCell id="5949701364443149800" value="HDMI" style="text;html=1;strokeColor=none;fillColor=none;align=left;verticalAlign=middle;whiteSpace=wrap;rounded=0;" parent="1" connectable="" edge="" vertex="1" source="" target="">
            <mxGeometry x="-4780" y="-2090" width="60" height="40" relative="" as="geometry"/>
          </mxCell>
        </object>
        <object label="" type="textbox" id="9978326830412488210">
          <mxCell id="4893201704304981648" value="" style="text;html=1;strokeColor=none;fillColor=none;align=left;verticalAlign=middle;whiteSpace=wrap;rounded=0;" parent="1" connectable="" edge="" vertex="1" source="" target="">
            <mxGeometry x="-5295" y="-2930" width="60" height="40" relative="" as="geometry"/>
          </mxCell>
        </object>
        <object label="" type="textbox" id="3542015598611286322">
          <mxCell id="6475506776934288670" value="" style="text;html=1;strokeColor=none;fillColor=none;align=left;verticalAlign=middle;whiteSpace=wrap;rounded=0;" parent="1" connectable="" edge="" vertex="1" source="" target="">
            <mxGeometry x="-5180" y="-2930" width="60" height="40" relative="" as="geometry"/>
          </mxCell>
        </object>
        <object label="" type="textbox" id="2394786190814366840">
          <mxCell id="8758590609686540170" value="" style="text;html=1;strokeColor=none;fillColor=none;align=left;verticalAlign=middle;whiteSpace=wrap;rounded=0;" parent="1" connectable="" edge="" vertex="1" source="" target="">
            <mxGeometry x="-5295" y="-2810" width="60" height="40" relative="" as="geometry"/>
          </mxCell>
        </object>
        <object label="" type="textbox" id="3877314376472734760">
          <mxCell id="4786049342489108751" value="" style="text;html=1;strokeColor=none;fillColor=none;align=left;verticalAlign=middle;whiteSpace=wrap;rounded=0;" parent="1" connectable="" edge="" vertex="1" source="" target="">
            <mxGeometry x="-5180" y="-2810" width="60" height="40" relative="" as="geometry"/>
          </mxCell>
        </object>
        <object label="" type="textbox" id="6139618226367977354">
          <mxCell id="8293873673750278312" value="" style="text;html=1;strokeColor=none;fillColor=none;align=left;verticalAlign=middle;whiteSpace=wrap;rounded=0;" parent="1" connectable="" edge="" vertex="1" source="" target="">
            <mxGeometry x="-5295" y="-2690" width="60" height="40" relative="" as="geometry"/>
          </mxCell>
        </object>
        <object label="" type="textbox" id="6975265848693518341">
          <mxCell id="2828732510631828429" value="" style="text;html=1;strokeColor=none;fillColor=none;align=left;verticalAlign=middle;whiteSpace=wrap;rounded=0;" parent="1" connectable="" edge="" vertex="1" source="" target="">
            <mxGeometry x="-5180" y="-2690" width="60" height="40" relative="" as="geometry"/>
          </mxCell>
        </object>
        <object label="XTP" type="textbox" id="7945620797687705550">
          <mxCell id="9538527817103536917" value="XTP" style="text;html=1;strokeColor=none;fillColor=none;align=left;verticalAlign=middle;whiteSpace=wrap;rounded=0;" parent="1" connectable="" edge="" vertex="1" source="" target="">
            <mxGeometry x="-5295" y="-2570" width="60" height="40" relative="" as="geometry"/>
          </mxCell>
        </object>
        <object label="HDMI" type="textbox" id="7381786611084977351">
          <mxCell id="5290198772721200781" value="HDMI" style="text;html=1;strokeColor=none;fillColor=none;align=left;verticalAlign=middle;whiteSpace=wrap;rounded=0;" parent="1" connectable="" edge="" vertex="1" source="" target="">
            <mxGeometry x="-5180" y="-2570" width="60" height="40" relative="" as="geometry"/>
          </mxCell>
        </object>
        <object label="" type="textbox" id="528868639633290603">
          <mxCell id="151449973837374554" value="" style="text;html=1;strokeColor=none;fillColor=none;align=left;verticalAlign=middle;whiteSpace=wrap;rounded=0;" parent="1" connectable="" edge="" vertex="1" source="" target="">
            <mxGeometry x="-5295" y="-2450" width="60" height="40" relative="" as="geometry"/>
          </mxCell>
        </object>
        <object label="" type="textbox" id="7223994099673304944">
          <mxCell id="1070431947524337520" value="" style="text;html=1;strokeColor=none;fillColor=none;align=left;verticalAlign=middle;whiteSpace=wrap;rounded=0;" parent="1" connectable="" edge="" vertex="1" source="" target="">
            <mxGeometry x="-5180" y="-2450" width="60" height="40" relative="" as="geometry"/>
          </mxCell>
        </object>
        <object label="" type="textbox" id="9150089168985551037">
          <mxCell id="6710496127930860603" value="" style="text;html=1;strokeColor=none;fillColor=none;align=left;verticalAlign=middle;whiteSpace=wrap;rounded=0;" parent="1" connectable="" edge="" vertex="1" source="" target="">
            <mxGeometry x="-5295" y="-2330" width="60" height="40" relative="" as="geometry"/>
          </mxCell>
        </object>
        <object label="" type="textbox" id="619456873053733130">
          <mxCell id="823372485800420278" value="" style="text;html=1;strokeColor=none;fillColor=none;align=left;verticalAlign=middle;whiteSpace=wrap;rounded=0;" parent="1" connectable="" edge="" vertex="1" source="" target="">
            <mxGeometry x="-5180" y="-2330" width="60" height="40" relative="" as="geometry"/>
          </mxCell>
        </object>
        <object label="" type="textbox" id="8690422610148755820">
          <mxCell id="9688502295218476823" value="" style="text;html=1;strokeColor=none;fillColor=none;align=left;verticalAlign=middle;whiteSpace=wrap;rounded=0;" parent="1" connectable="" edge="" vertex="1" source="" target="">
            <mxGeometry x="-5295" y="-2210" width="60" height="40" relative="" as="geometry"/>
          </mxCell>
        </object>
        <object label="" type="textbox" id="8934177430401314201">
          <mxCell id="2792291585147774090" value="" style="text;html=1;strokeColor=none;fillColor=none;align=left;verticalAlign=middle;whiteSpace=wrap;rounded=0;" parent="1" connectable="" edge="" vertex="1" source="" target="">
            <mxGeometry x="-5180" y="-2210" width="60" height="40" relative="" as="geometry"/>
          </mxCell>
        </object>
        <object label="" type="textbox" id="306609357409540207">
          <mxCell id="9558994632102503220" value="" style="text;html=1;strokeColor=none;fillColor=none;align=left;verticalAlign=middle;whiteSpace=wrap;rounded=0;" parent="1" connectable="" edge="" vertex="1" source="" target="">
            <mxGeometry x="-5295" y="-2090" width="60" height="40" relative="" as="geometry"/>
          </mxCell>
        </object>
        <object label="" type="textbox" id="8316520119992287508">
          <mxCell id="565198071718828289" value="" style="text;html=1;strokeColor=none;fillColor=none;align=left;verticalAlign=middle;whiteSpace=wrap;rounded=0;" parent="1" connectable="" edge="" vertex="1" source="" target="">
            <mxGeometry x="-5180" y="-2090" width="60" height="40" relative="" as="geometry"/>
          </mxCell>
        </object>
        <object label="HDMI" type="textbox" id="8143277540762394736">
          <mxCell id="9798285851638238598" value="HDMI" style="text;html=1;strokeColor=none;fillColor=none;align=left;verticalAlign=middle;whiteSpace=wrap;rounded=0;" parent="1" connectable="" edge="" vertex="1" source="" target="">
            <mxGeometry x="-3655" y="-2930" width="60" height="40" relative="" as="geometry"/>
          </mxCell>
        </object>
        <object label="HDMI" type="textbox" id="9305860829382151717">
          <mxCell id="8308116320367451021" value="HDMI" style="text;html=1;strokeColor=none;fillColor=none;align=left;verticalAlign=middle;whiteSpace=wrap;rounded=0;" parent="1" connectable="" edge="" vertex="1" source="" target="">
            <mxGeometry x="-3540" y="-2930" width="60" height="40" relative="" as="geometry"/>
          </mxCell>
        </object>
        <object label="HDMI" type="textbox" id="8083163270772625491">
          <mxCell id="162532070620585498" value="HDMI" style="text;html=1;strokeColor=none;fillColor=none;align=left;verticalAlign=middle;whiteSpace=wrap;rounded=0;" parent="1" connectable="" edge="" vertex="1" source="" target="">
            <mxGeometry x="-3655" y="-2810" width="60" height="40" relative="" as="geometry"/>
          </mxCell>
        </object>
        <object label="HDMI" type="textbox" id="4369340176566720397">
          <mxCell id="5100361975508090430" value="HDMI" style="text;html=1;strokeColor=none;fillColor=none;align=left;verticalAlign=middle;whiteSpace=wrap;rounded=0;" parent="1" connectable="" edge="" vertex="1" source="" target="">
            <mxGeometry x="-3540" y="-2810" width="60" height="40" relative="" as="geometry"/>
          </mxCell>
        </object>
        <object label="HDMI" type="textbox" id="5867869067581182374">
          <mxCell id="7517903930425612534" value="HDMI" style="text;html=1;strokeColor=none;fillColor=none;align=left;verticalAlign=middle;whiteSpace=wrap;rounded=0;" parent="1" connectable="" edge="" vertex="1" source="" target="">
            <mxGeometry x="-3655" y="-2690" width="60" height="40" relative="" as="geometry"/>
          </mxCell>
        </object>
        <object label="HDMI" type="textbox" id="9370823410024764240">
          <mxCell id="6706080931419190780" value="HDMI" style="text;html=1;strokeColor=none;fillColor=none;align=left;verticalAlign=middle;whiteSpace=wrap;rounded=0;" parent="1" connectable="" edge="" vertex="1" source="" target="">
            <mxGeometry x="-3540" y="-2690" width="60" height="40" relative="" as="geometry"/>
          </mxCell>
        </object>
        <object label="HDMI" type="textbox" id="4232724399029883921">
          <mxCell id="8814614383036648576" value="HDMI" style="text;html=1;strokeColor=none;fillColor=none;align=left;verticalAlign=middle;whiteSpace=wrap;rounded=0;" parent="1" connectable="" edge="" vertex="1" source="" target="">
            <mxGeometry x="-3655" y="-2570" width="60" height="40" relative="" as="geometry"/>
          </mxCell>
        </object>
        <object label="HDMI" type="textbox" id="3045903224897980069">
          <mxCell id="8015310305524627998" value="HDMI" style="text;html=1;strokeColor=none;fillColor=none;align=left;verticalAlign=middle;whiteSpace=wrap;rounded=0;" parent="1" connectable="" edge="" vertex="1" source="" target="">
            <mxGeometry x="-3540" y="-2570" width="60" height="40" relative="" as="geometry"/>
          </mxCell>
        </object>
        <object label="" type="textbox" id="4289161001268173020">
          <mxCell id="4062324868261743903" value="" style="text;html=1;strokeColor=none;fillColor=none;align=left;verticalAlign=middle;whiteSpace=wrap;rounded=0;" parent="1" connectable="" edge="" vertex="1" source="" target="">
            <mxGeometry x="-3655" y="-2450" width="60" height="40" relative="" as="geometry"/>
          </mxCell>
        </object>
        <object label="" type="textbox" id="957003749527103268">
          <mxCell id="2440397648530120584" value="" style="text;html=1;strokeColor=none;fillColor=none;align=left;verticalAlign=middle;whiteSpace=wrap;rounded=0;" parent="1" connectable="" edge="" vertex="1" source="" target="">
            <mxGeometry x="-3540" y="-2450" width="60" height="40" relative="" as="geometry"/>
          </mxCell>
        </object>
        <object label="" type="textbox" id="2656971899795441825">
          <mxCell id="3112032177440385066" value="" style="text;html=1;strokeColor=none;fillColor=none;align=left;verticalAlign=middle;whiteSpace=wrap;rounded=0;" parent="1" connectable="" edge="" vertex="1" source="" target="">
            <mxGeometry x="-3655" y="-2330" width="60" height="40" relative="" as="geometry"/>
          </mxCell>
        </object>
        <object label="" type="textbox" id="1568881460465903236">
          <mxCell id="9855654287810032588" value="" style="text;html=1;strokeColor=none;fillColor=none;align=left;verticalAlign=middle;whiteSpace=wrap;rounded=0;" parent="1" connectable="" edge="" vertex="1" source="" target="">
            <mxGeometry x="-3540" y="-2330" width="60" height="40" relative="" as="geometry"/>
          </mxCell>
        </object>
        <object label="" type="textbox" id="2465228964427532075">
          <mxCell id="5827909530858492208" value="" style="text;html=1;strokeColor=none;fillColor=none;align=left;verticalAlign=middle;whiteSpace=wrap;rounded=0;" parent="1" connectable="" edge="" vertex="1" source="" target="">
            <mxGeometry x="-3655" y="-2210" width="60" height="40" relative="" as="geometry"/>
          </mxCell>
        </object>
        <object label="" type="textbox" id="6862585627878274083">
          <mxCell id="2775375484592076855" value="" style="text;html=1;strokeColor=none;fillColor=none;align=left;verticalAlign=middle;whiteSpace=wrap;rounded=0;" parent="1" connectable="" edge="" vertex="1" source="" target="">
            <mxGeometry x="-3540" y="-2210" width="60" height="40" relative="" as="geometry"/>
          </mxCell>
        </object>
        <object label="" type="textbox" id="3663309692387839918">
          <mxCell id="7233374989477802735" value="" style="text;html=1;strokeColor=none;fillColor=none;align=left;verticalAlign=middle;whiteSpace=wrap;rounded=0;" parent="1" connectable="" edge="" vertex="1" source="" target="">
            <mxGeometry x="-3655" y="-2090" width="60" height="40" relative="" as="geometry"/>
          </mxCell>
        </object>
        <object label="" type="textbox" id="3439014704372909366">
          <mxCell id="7410068062859348124" value="" style="text;html=1;strokeColor=none;fillColor=none;align=left;verticalAlign=middle;whiteSpace=wrap;rounded=0;" parent="1" connectable="" edge="" vertex="1" source="" target="">
            <mxGeometry x="-3540" y="-2090" width="60" height="40" relative="" as="geometry"/>
          </mxCell>
        </object>
        <object label="" type="textbox" id="9617474811731293421">
          <mxCell id="4120800791549862460" value="" style="text;html=1;strokeColor=none;fillColor=none;align=left;verticalAlign=middle;whiteSpace=wrap;rounded=0;" parent="1" connectable="" edge="" vertex="1" source="" target="">
            <mxGeometry x="-3255" y="-2930" width="60" height="40" relative="" as="geometry"/>
          </mxCell>
        </object>
        <object label="" type="textbox" id="4548466019562099390">
          <mxCell id="3221031577575112275" value="" style="text;html=1;strokeColor=none;fillColor=none;align=left;verticalAlign=middle;whiteSpace=wrap;rounded=0;" parent="1" connectable="" edge="" vertex="1" source="" target="">
            <mxGeometry x="-3140" y="-2930" width="60" height="40" relative="" as="geometry"/>
          </mxCell>
        </object>
        <object label="HDMI" type="textbox" id="5245243786398399183">
          <mxCell id="7893093937255832599" value="HDMI" style="text;html=1;strokeColor=none;fillColor=none;align=left;verticalAlign=middle;whiteSpace=wrap;rounded=0;" parent="1" connectable="" edge="" vertex="1" source="" target="">
            <mxGeometry x="-3255" y="-2810" width="60" height="40" relative="" as="geometry"/>
          </mxCell>
        </object>
        <object label="HDMI" type="textbox" id="2250017980094194583">
          <mxCell id="7803741294786182721" value="HDMI" style="text;html=1;strokeColor=none;fillColor=none;align=left;verticalAlign=middle;whiteSpace=wrap;rounded=0;" parent="1" connectable="" edge="" vertex="1" source="" target="">
            <mxGeometry x="-3140" y="-2810" width="60" height="40" relative="" as="geometry"/>
          </mxCell>
        </object>
        <object label="" type="textbox" id="7181562627093872577">
          <mxCell id="1135232097482205605" value="" style="text;html=1;strokeColor=none;fillColor=none;align=left;verticalAlign=middle;whiteSpace=wrap;rounded=0;" parent="1" connectable="" edge="" vertex="1" source="" target="">
            <mxGeometry x="-3255" y="-2690" width="60" height="40" relative="" as="geometry"/>
          </mxCell>
        </object>
        <object label="" type="textbox" id="4979543921613317585">
          <mxCell id="5345698332927449037" value="" style="text;html=1;strokeColor=none;fillColor=none;align=left;verticalAlign=middle;whiteSpace=wrap;rounded=0;" parent="1" connectable="" edge="" vertex="1" source="" target="">
            <mxGeometry x="-3140" y="-2690" width="60" height="40" relative="" as="geometry"/>
          </mxCell>
        </object>
        <object label="" type="textbox" id="9498344376736862142">
          <mxCell id="3723154600616324069" value="" style="text;html=1;strokeColor=none;fillColor=none;align=left;verticalAlign=middle;whiteSpace=wrap;rounded=0;" parent="1" connectable="" edge="" vertex="1" source="" target="">
            <mxGeometry x="-3255" y="-2570" width="60" height="40" relative="" as="geometry"/>
          </mxCell>
        </object>
        <object label="" type="textbox" id="6267747920446739544">
          <mxCell id="1758968856563939363" value="" style="text;html=1;strokeColor=none;fillColor=none;align=left;verticalAlign=middle;whiteSpace=wrap;rounded=0;" parent="1" connectable="" edge="" vertex="1" source="" target="">
            <mxGeometry x="-3140" y="-2570" width="60" height="40" relative="" as="geometry"/>
          </mxCell>
        </object>
        <object label="" type="textbox" id="9869224121705320128">
          <mxCell id="7422752962407794771" value="" style="text;html=1;strokeColor=none;fillColor=none;align=left;verticalAlign=middle;whiteSpace=wrap;rounded=0;" parent="1" connectable="" edge="" vertex="1" source="" target="">
            <mxGeometry x="-3255" y="-2450" width="60" height="40" relative="" as="geometry"/>
          </mxCell>
        </object>
        <object label="" type="textbox" id="6584035405097319416">
          <mxCell id="1554039533134156486" value="" style="text;html=1;strokeColor=none;fillColor=none;align=left;verticalAlign=middle;whiteSpace=wrap;rounded=0;" parent="1" connectable="" edge="" vertex="1" source="" target="">
            <mxGeometry x="-3140" y="-2450" width="60" height="40" relative="" as="geometry"/>
          </mxCell>
        </object>
        <object label="" type="textbox" id="997025525233839887">
          <mxCell id="5092998624076831021" value="" style="text;html=1;strokeColor=none;fillColor=none;align=left;verticalAlign=middle;whiteSpace=wrap;rounded=0;" parent="1" connectable="" edge="" vertex="1" source="" target="">
            <mxGeometry x="-3255" y="-2330" width="60" height="40" relative="" as="geometry"/>
          </mxCell>
        </object>
        <object label="" type="textbox" id="9516589623895525399">
          <mxCell id="6485828158915552468" value="" style="text;html=1;strokeColor=none;fillColor=none;align=left;verticalAlign=middle;whiteSpace=wrap;rounded=0;" parent="1" connectable="" edge="" vertex="1" source="" target="">
            <mxGeometry x="-3140" y="-2330" width="60" height="40" relative="" as="geometry"/>
          </mxCell>
        </object>
        <object label="" type="textbox" id="8581684721626612733">
          <mxCell id="5496005265377773838" value="" style="text;html=1;strokeColor=none;fillColor=none;align=left;verticalAlign=middle;whiteSpace=wrap;rounded=0;" parent="1" connectable="" edge="" vertex="1" source="" target="">
            <mxGeometry x="-3255" y="-2210" width="60" height="40" relative="" as="geometry"/>
          </mxCell>
        </object>
        <object label="" type="textbox" id="5507850130790014937">
          <mxCell id="9308363158736854621" value="" style="text;html=1;strokeColor=none;fillColor=none;align=left;verticalAlign=middle;whiteSpace=wrap;rounded=0;" parent="1" connectable="" edge="" vertex="1" source="" target="">
            <mxGeometry x="-3140" y="-2210" width="60" height="40" relative="" as="geometry"/>
          </mxCell>
        </object>
        <object label="" type="textbox" id="9415699675150917506">
          <mxCell id="9335532249595179607" value="" style="text;html=1;strokeColor=none;fillColor=none;align=left;verticalAlign=middle;whiteSpace=wrap;rounded=0;" parent="1" connectable="" edge="" vertex="1" source="" target="">
            <mxGeometry x="-3255" y="-2090" width="60" height="40" relative="" as="geometry"/>
          </mxCell>
        </object>
        <object label="" type="textbox" id="8639590820867109384">
          <mxCell id="6838032921308494624" value="" style="text;html=1;strokeColor=none;fillColor=none;align=left;verticalAlign=middle;whiteSpace=wrap;rounded=0;" parent="1" connectable="" edge="" vertex="1" source="" target="">
            <mxGeometry x="-3140" y="-2090" width="60" height="40" relative="" as="geometry"/>
          </mxCell>
        </object>
        <object label="" type="textbox" id="7032889710018488325">
          <mxCell id="7504184049736420033" value="" style="text;html=1;strokeColor=none;fillColor=none;align=left;verticalAlign=middle;whiteSpace=wrap;rounded=0;" parent="1" connectable="" edge="" vertex="1" source="" target="">
            <mxGeometry x="-2855" y="-2930" width="60" height="40" relative="" as="geometry"/>
          </mxCell>
        </object>
        <object label="" type="textbox" id="1472169391717514507">
          <mxCell id="1155141197375934282" value="" style="text;html=1;strokeColor=none;fillColor=none;align=left;verticalAlign=middle;whiteSpace=wrap;rounded=0;" parent="1" connectable="" edge="" vertex="1" source="" target="">
            <mxGeometry x="-2740" y="-2930" width="60" height="40" relative="" as="geometry"/>
          </mxCell>
        </object>
        <object label="" type="textbox" id="815917357985275095">
          <mxCell id="7611430197649970486" value="" style="text;html=1;strokeColor=none;fillColor=none;align=left;verticalAlign=middle;whiteSpace=wrap;rounded=0;" parent="1" connectable="" edge="" vertex="1" source="" target="">
            <mxGeometry x="-2855" y="-2810" width="60" height="40" relative="" as="geometry"/>
          </mxCell>
        </object>
        <object label="" type="textbox" id="1711206382747111132">
          <mxCell id="3134087278066388389" value="" style="text;html=1;strokeColor=none;fillColor=none;align=left;verticalAlign=middle;whiteSpace=wrap;rounded=0;" parent="1" connectable="" edge="" vertex="1" source="" target="">
            <mxGeometry x="-2740" y="-2810" width="60" height="40" relative="" as="geometry"/>
          </mxCell>
        </object>
        <object label="" type="textbox" id="1062159213123760575">
          <mxCell id="4806852140501774306" value="" style="text;html=1;strokeColor=none;fillColor=none;align=left;verticalAlign=middle;whiteSpace=wrap;rounded=0;" parent="1" connectable="" edge="" vertex="1" source="" target="">
            <mxGeometry x="-2855" y="-2690" width="60" height="40" relative="" as="geometry"/>
          </mxCell>
        </object>
        <object label="" type="textbox" id="2945766562231649019">
          <mxCell id="851649890644973473" value="" style="text;html=1;strokeColor=none;fillColor=none;align=left;verticalAlign=middle;whiteSpace=wrap;rounded=0;" parent="1" connectable="" edge="" vertex="1" source="" target="">
            <mxGeometry x="-2740" y="-2690" width="60" height="40" relative="" as="geometry"/>
          </mxCell>
        </object>
        <object label="" type="textbox" id="2270968596626494179">
          <mxCell id="9272506970502259273" value="" style="text;html=1;strokeColor=none;fillColor=none;align=left;verticalAlign=middle;whiteSpace=wrap;rounded=0;" parent="1" connectable="" edge="" vertex="1" source="" target="">
            <mxGeometry x="-2855" y="-2570" width="60" height="40" relative="" as="geometry"/>
          </mxCell>
        </object>
        <object label="" type="textbox" id="5281010881831322182">
          <mxCell id="478053248910023694" value="" style="text;html=1;strokeColor=none;fillColor=none;align=left;verticalAlign=middle;whiteSpace=wrap;rounded=0;" parent="1" connectable="" edge="" vertex="1" source="" target="">
            <mxGeometry x="-2740" y="-2570" width="60" height="40" relative="" as="geometry"/>
          </mxCell>
        </object>
        <object label="" type="textbox" id="8452037448488378384">
          <mxCell id="2458499690529706115" value="" style="text;html=1;strokeColor=none;fillColor=none;align=left;verticalAlign=middle;whiteSpace=wrap;rounded=0;" parent="1" connectable="" edge="" vertex="1" source="" target="">
            <mxGeometry x="-2855" y="-2450" width="60" height="40" relative="" as="geometry"/>
          </mxCell>
        </object>
        <object label="" type="textbox" id="3023941093436145759">
          <mxCell id="2246672137746854342" value="" style="text;html=1;strokeColor=none;fillColor=none;align=left;verticalAlign=middle;whiteSpace=wrap;rounded=0;" parent="1" connectable="" edge="" vertex="1" source="" target="">
            <mxGeometry x="-2740" y="-2450" width="60" height="40" relative="" as="geometry"/>
          </mxCell>
        </object>
        <object label="" type="textbox" id="5186597341010765258">
          <mxCell id="2922066646100690282" value="" style="text;html=1;strokeColor=none;fillColor=none;align=left;verticalAlign=middle;whiteSpace=wrap;rounded=0;" parent="1" connectable="" edge="" vertex="1" source="" target="">
            <mxGeometry x="-2855" y="-2330" width="60" height="40" relative="" as="geometry"/>
          </mxCell>
        </object>
        <object label="" type="textbox" id="7409015381150591905">
          <mxCell id="1698452127074791300" value="" style="text;html=1;strokeColor=none;fillColor=none;align=left;verticalAlign=middle;whiteSpace=wrap;rounded=0;" parent="1" connectable="" edge="" vertex="1" source="" target="">
            <mxGeometry x="-2740" y="-2330" width="60" height="40" relative="" as="geometry"/>
          </mxCell>
        </object>
        <object label="" type="textbox" id="9653055275361656467">
          <mxCell id="9383485179339330814" value="" style="text;html=1;strokeColor=none;fillColor=none;align=left;verticalAlign=middle;whiteSpace=wrap;rounded=0;" parent="1" connectable="" edge="" vertex="1" source="" target="">
            <mxGeometry x="-2855" y="-2210" width="60" height="40" relative="" as="geometry"/>
          </mxCell>
        </object>
        <object label="" type="textbox" id="4656761958213298798">
          <mxCell id="6015809498968392210" value="" style="text;html=1;strokeColor=none;fillColor=none;align=left;verticalAlign=middle;whiteSpace=wrap;rounded=0;" parent="1" connectable="" edge="" vertex="1" source="" target="">
            <mxGeometry x="-2740" y="-2210" width="60" height="40" relative="" as="geometry"/>
          </mxCell>
        </object>
        <object label="" type="textbox" id="3585874618529611427">
          <mxCell id="8773890062044911044" value="" style="text;html=1;strokeColor=none;fillColor=none;align=left;verticalAlign=middle;whiteSpace=wrap;rounded=0;" parent="1" connectable="" edge="" vertex="1" source="" target="">
            <mxGeometry x="-2855" y="-2090" width="60" height="40" relative="" as="geometry"/>
          </mxCell>
        </object>
        <object label="" type="textbox" id="8429103820486280375">
          <mxCell id="2387573609271669531" value="" style="text;html=1;strokeColor=none;fillColor=none;align=left;verticalAlign=middle;whiteSpace=wrap;rounded=0;" parent="1" connectable="" edge="" vertex="1" source="" target="">
            <mxGeometry x="-2740" y="-2090" width="60" height="40" relative="" as="geometry"/>
          </mxCell>
        </object>
        <object label="Cisco Webex CODEC Pro, CS-CODEC-PRO-K9++" type="text-box" id="2164707101663111062">
          <mxCell id="6398842937835781851" value="Cisco Webex CODEC Pro, CS-CODEC-PRO-K9++" style="rounded=0;whiteSpace=wrap;html=1;" parent="1" connectable="" edge="" vertex="1" source="" target="">
            <mxGeometry x="-4500" y="-2975" width="160" height="40" relative="" as="geometry"/>
          </mxCell>
        </object>
        <object label="Cisco Webex CODEC Pro, CS-CODEC-PRO-K9++" type="text-box" id="6329906348342636238">
          <mxCell id="5759758016947198630" value="Cisco Webex CODEC Pro, CS-CODEC-PRO-K9++" style="rounded=0;whiteSpace=wrap;html=1;" parent="1" connectable="" edge="" vertex="1" source="" target="">
            <mxGeometry x="-4500" y="-2855" width="160" height="40" relative="" as="geometry"/>
          </mxCell>
        </object>
        <object label="232-ATSC Tuner, 5114-001" type="text-box" id="9539893663102517855">
          <mxCell id="7485468447855796905" value="232-ATSC Tuner, 5114-001" style="rounded=0;whiteSpace=wrap;html=1;" parent="1" connectable="" edge="" vertex="1" source="" target="">
            <mxGeometry x="-4500" y="-2735" width="160" height="40" relative="" as="geometry"/>
          </mxCell>
        </object>
        <object label="DTP HD DA 4K 230, 60-1437-01" type="text-box" id="8493001868826057561">
          <mxCell id="3228933811192673116" value="DTP HD DA 4K 230, 60-1437-01" style="rounded=0;whiteSpace=wrap;html=1;" parent="1" connectable="" edge="" vertex="1" source="" target="">
            <mxGeometry x="-4500" y="-2615" width="160" height="40" relative="" as="geometry"/>
          </mxCell>
        </object>
        <object label="GFE NIPR, " type="text-box" id="4123583577165156872">
          <mxCell id="1768080863803515437" value="GFE NIPR, " style="rounded=0;whiteSpace=wrap;html=1;" parent="1" connectable="" edge="" vertex="1" source="" target="">
            <mxGeometry x="-4500" y="-2495" width="160" height="40" relative="" as="geometry"/>
          </mxCell>
        </object>
        <object label="GFE NIPR, " type="text-box" id="6547198131002093506">
          <mxCell id="2429098544938646699" value="GFE NIPR, " style="rounded=0;whiteSpace=wrap;html=1;" parent="1" connectable="" edge="" vertex="1" source="" target="">
            <mxGeometry x="-4500" y="-2375" width="160" height="40" relative="" as="geometry"/>
          </mxCell>
        </object>
        <object label="DTP HDMI 4K 230 Tx, 60-1271-12" type="text-box" id="6565429360232112464">
          <mxCell id="3688429311189691687" value="DTP HDMI 4K 230 Tx, 60-1271-12" style="rounded=0;whiteSpace=wrap;html=1;" parent="1" connectable="" edge="" vertex="1" source="" target="">
            <mxGeometry x="-4500" y="-2255" width="160" height="40" relative="" as="geometry"/>
          </mxCell>
        </object>
        <object label="DTP HDMI 4K 230 Tx, 60-1271-12" type="text-box" id="3526279526339977844">
          <mxCell id="6274386651018453110" value="DTP HDMI 4K 230 Tx, 60-1271-12" style="rounded=0;whiteSpace=wrap;html=1;" parent="1" connectable="" edge="" vertex="1" source="" target="">
            <mxGeometry x="-4500" y="-2135" width="160" height="40" relative="" as="geometry"/>
          </mxCell>
        </object>
        <object label="MediaPort 200, 60-1488-01" type="text-box" id="1644798267494608325">
          <mxCell id="793736669235499421" value="MediaPort 200, 60-1488-01" style="rounded=0;whiteSpace=wrap;html=1;" parent="1" connectable="" edge="" vertex="1" source="" target="">
            <mxGeometry x="-4900" y="-2615" width="160" height="40" relative="" as="geometry"/>
          </mxCell>
        </object>
        <object label="GFE SIPR, " type="text-box" id="6199686637108405872">
          <mxCell id="5496883248098094692" value="GFE SIPR, " style="rounded=0;whiteSpace=wrap;html=1;" parent="1" connectable="" edge="" vertex="1" source="" target="">
            <mxGeometry x="-4900" y="-2255" width="160" height="40" relative="" as="geometry"/>
          </mxCell>
        </object>
        <object label="GFE SIPR, " type="text-box" id="432425490925334666">
          <mxCell id="1713713365690673914" value="GFE SIPR, " style="rounded=0;whiteSpace=wrap;html=1;" parent="1" connectable="" edge="" vertex="1" source="" target="">
            <mxGeometry x="-4900" y="-2135" width="160" height="40" relative="" as="geometry"/>
          </mxCell>
        </object>
        <object label=", SRG-300H" type="text-box" id="4305085585213476775">
          <mxCell id="5986975374690859656" value=", SRG-300H" style="rounded=0;whiteSpace=wrap;html=1;" parent="1" connectable="" edge="" vertex="1" source="" target="">
            <mxGeometry x="-5300" y="-2615" width="160" height="40" relative="" as="geometry"/>
          </mxCell>
        </object>
        <object label="Cisco Webex CODEC Pro, CS-CODEC-PRO-K9++" type="text-box" id="9537254348508186758">
          <mxCell id="4065219063544469573" value="Cisco Webex CODEC Pro, CS-CODEC-PRO-K9++" style="rounded=0;whiteSpace=wrap;html=1;" parent="1" connectable="" edge="" vertex="1" source="" target="">
            <mxGeometry x="-3660" y="-2975" width="160" height="40" relative="" as="geometry"/>
          </mxCell>
        </object>
        <object label="HD 4K 101, 60-872-02" type="text-box" id="6822451459034545563">
          <mxCell id="6266542671663685748" value="HD 4K 101, 60-872-02" style="rounded=0;whiteSpace=wrap;html=1;" parent="1" connectable="" edge="" vertex="1" source="" target="">
            <mxGeometry x="-3660" y="-2855" width="160" height="40" relative="" as="geometry"/>
          </mxCell>
        </object>
        <object label="Christie 75&quot;, SUHD753-L" type="text-box" id="2964454599396053708">
          <mxCell id="2342302231828243253" value="Christie 75&quot;, SUHD753-L" style="rounded=0;whiteSpace=wrap;html=1;" parent="1" connectable="" edge="" vertex="1" source="" target="">
            <mxGeometry x="-3660" y="-2735" width="160" height="40" relative="" as="geometry"/>
          </mxCell>
        </object>
        <object label="Christie 75&quot;, SUHD753-L" type="text-box" id="2426550120231637379">
          <mxCell id="5307006559607983159" value="Christie 75&quot;, SUHD753-L" style="rounded=0;whiteSpace=wrap;html=1;" parent="1" connectable="" edge="" vertex="1" source="" target="">
            <mxGeometry x="-3660" y="-2615" width="160" height="40" relative="" as="geometry"/>
          </mxCell>
        </object>
        <object label="Cisco Webex CODEC Pro, CS-CODEC-PRO-K9++" type="text-box" id="5877638584294529682">
          <mxCell id="6242757540645637014" value="Cisco Webex CODEC Pro, CS-CODEC-PRO-K9++" style="rounded=0;whiteSpace=wrap;html=1;" parent="1" connectable="" edge="" vertex="1" source="" target="">
            <mxGeometry x="-3260" y="-2855" width="160" height="40" relative="" as="geometry"/>
          </mxCell>
        </object>
        <object label="" type="matrix" id="9485813705225758168">
          <mxCell id="9323243410221058442" value="" style="rounded=0;whiteSpace=wrap;html=1;" parent="1" connectable="" edge="" vertex="1" source="" target="">
            <mxGeometry x="-4100" y="-3000" width="200" height="1000" relative="" as="geometry"/>
          </mxCell>
        </object>
        <object label="Extron DTP CrossPoint 84 4K IPCP Q MA 70, 60-1515-93" type="matrix" id="6149434539760543575">
          <mxCell id="9762752967035519893" value="Extron DTP CrossPoint 84 4K IPCP Q MA 70, 60-1515-93" style="text-box" parent="1" connectable="" edge="" vertex="1" source="" target="">
            <mxGeometry x="-4100" y="-3040" width="200" height="80" relative="" as="geometry"/>
          </mxCell>
        </object>
        <object label="HDMI 1" type="text-box" id="1750942889579424330">
          <mxCell id="6413379664995316321" value="HDMI 1" style="text;html=1;strokeColor=none;fillColor=none;align=left;verticalAlign=middle;whiteSpace=wrap;rounded=0;" parent="1" connectable="" edge="" vertex="1" source="" target="">
            <mxGeometry x="-4090" y="-2930" width="60" height="40" relative="" as="geometry"/>
          </mxCell>
        </object>
        <object label="HDMI 1" type="text-box" id="5985008570593238631">
          <mxCell id="6755320162416343663" value="HDMI 1" style="text;html=1;strokeColor=none;fillColor=none;align=left;verticalAlign=middle;whiteSpace=wrap;rounded=0;" parent="1" connectable="" edge="" vertex="1" source="" target="">
            <mxGeometry x="-3960" y="-2930" width="60" height="40" relative="" as="geometry"/>
          </mxCell>
        </object>
        <object label="HDMI 2" type="text-box" id="4716546113641201179">
          <mxCell id="7987134743865672899" value="HDMI 2" style="text;html=1;strokeColor=none;fillColor=none;align=left;verticalAlign=middle;whiteSpace=wrap;rounded=0;" parent="1" connectable="" edge="" vertex="1" source="" target="">
            <mxGeometry x="-4090" y="-2810" width="60" height="40" relative="" as="geometry"/>
          </mxCell>
        </object>
        <object label="HDMI 2" type="text-box" id="9851723843467575218">
          <mxCell id="7781390975271926031" value="HDMI 2" style="text;html=1;strokeColor=none;fillColor=none;align=left;verticalAlign=middle;whiteSpace=wrap;rounded=0;" parent="1" connectable="" edge="" vertex="1" source="" target="">
            <mxGeometry x="-3960" y="-2810" width="60" height="40" relative="" as="geometry"/>
          </mxCell>
        </object>
        <object label="HDMI 3" type="text-box" id="2944164539402115451">
          <mxCell id="3163508994696997855" value="HDMI 3" style="text;html=1;strokeColor=none;fillColor=none;align=left;verticalAlign=middle;whiteSpace=wrap;rounded=0;" parent="1" connectable="" edge="" vertex="1" source="" target="">
            <mxGeometry x="-4090" y="-2690" width="60" height="40" relative="" as="geometry"/>
          </mxCell>
        </object>
        <object label="HDMI 3a" type="text-box" id="4257544811570248355">
          <mxCell id="7068353398271764000" value="HDMI 3a" style="text;html=1;strokeColor=none;fillColor=none;align=left;verticalAlign=middle;whiteSpace=wrap;rounded=0;" parent="1" connectable="" edge="" vertex="1" source="" target="">
            <mxGeometry x="-3960" y="-2690" width="60" height="40" relative="" as="geometry"/>
          </mxCell>
        </object>
        <object label="HDMI 4" type="text-box" id="3643169081615237045">
          <mxCell id="3617570139985915250" value="HDMI 4" style="text;html=1;strokeColor=none;fillColor=none;align=left;verticalAlign=middle;whiteSpace=wrap;rounded=0;" parent="1" connectable="" edge="" vertex="1" source="" target="">
            <mxGeometry x="-4090" y="-2570" width="60" height="40" relative="" as="geometry"/>
          </mxCell>
        </object>
        <object label="HDMI 4a" type="text-box" id="6325966606969230706">
          <mxCell id="5172848817676190456" value="HDMI 4a" style="text;html=1;strokeColor=none;fillColor=none;align=left;verticalAlign=middle;whiteSpace=wrap;rounded=0;" parent="1" connectable="" edge="" vertex="1" source="" target="">
            <mxGeometry x="-3960" y="-2570" width="60" height="40" relative="" as="geometry"/>
          </mxCell>
        </object>
        <object label="HDMI 5" type="text-box" id="2470709560284677043">
          <mxCell id="7940680318386705573" value="HDMI 5" style="text;html=1;strokeColor=none;fillColor=none;align=left;verticalAlign=middle;whiteSpace=wrap;rounded=0;" parent="1" connectable="" edge="" vertex="1" source="" target="">
            <mxGeometry x="-4090" y="-2450" width="60" height="40" relative="" as="geometry"/>
          </mxCell>
        </object>
        <object label="DTP 3b" type="text-box" id="5575885054552778657">
          <mxCell id="2411642970062421779" value="DTP 3b" style="text;html=1;strokeColor=none;fillColor=none;align=left;verticalAlign=middle;whiteSpace=wrap;rounded=0;" parent="1" connectable="" edge="" vertex="1" source="" target="">
            <mxGeometry x="-3960" y="-2450" width="60" height="40" relative="" as="geometry"/>
          </mxCell>
        </object>
        <object label="HDMI 6" type="text-box" id="5334855566867523612">
          <mxCell id="6778682808343133594" value="HDMI 6" style="text;html=1;strokeColor=none;fillColor=none;align=left;verticalAlign=middle;whiteSpace=wrap;rounded=0;" parent="1" connectable="" edge="" vertex="1" source="" target="">
            <mxGeometry x="-4090" y="-2330" width="60" height="40" relative="" as="geometry"/>
          </mxCell>
        </object>
        <object label="DTP 4b" type="text-box" id="6366058660465277062">
          <mxCell id="7932195744206855959" value="DTP 4b" style="text;html=1;strokeColor=none;fillColor=none;align=left;verticalAlign=middle;whiteSpace=wrap;rounded=0;" parent="1" connectable="" edge="" vertex="1" source="" target="">
            <mxGeometry x="-3960" y="-2330" width="60" height="40" relative="" as="geometry"/>
          </mxCell>
        </object>
        <object label="DTP 7" type="text-box" id="5451651394253172989">
          <mxCell id="5605567551086224493" value="DTP 7" style="text;html=1;strokeColor=none;fillColor=none;align=left;verticalAlign=middle;whiteSpace=wrap;rounded=0;" parent="1" connectable="" edge="" vertex="1" source="" target="">
            <mxGeometry x="-4090" y="-2210" width="60" height="40" relative="" as="geometry"/>
          </mxCell>
        </object>
        <object label="" type="text-box" id="4559806260789623686">
          <mxCell id="5730466856406215873" value="" style="text;html=1;strokeColor=none;fillColor=none;align=left;verticalAlign=middle;whiteSpace=wrap;rounded=0;" parent="1" connectable="" edge="" vertex="1" source="" target="">
            <mxGeometry x="-3960" y="-2210" width="60" height="40" relative="" as="geometry"/>
          </mxCell>
        </object>
        <object label="DTP 8" type="text-box" id="2080447674542794644">
          <mxCell id="1612684847483298696" value="DTP 8" style="text;html=1;strokeColor=none;fillColor=none;align=left;verticalAlign=middle;whiteSpace=wrap;rounded=0;" parent="1" connectable="" edge="" vertex="1" source="" target="">
            <mxGeometry x="-4090" y="-2090" width="60" height="40" relative="" as="geometry"/>
          </mxCell>
        </object>
        <object label="" type="text-box" id="216618537815653017">
          <mxCell id="9158144820701137484" value="" style="text;html=1;strokeColor=none;fillColor=none;align=left;verticalAlign=middle;whiteSpace=wrap;rounded=0;" parent="1" connectable="" edge="" vertex="1" source="" target="">
            <mxGeometry x="-3960" y="-2090" width="60" height="40" relative="" as="geometry"/>
          </mxCell>
        </object>
      </root>
    </mxGraphModel>
  </diagram>
</mxfile>
